<?xml version="1.0" standalone="no"?>
<!DOCTYPE svg PUBLIC "-//W3C//DTD SVG 20010904//EN"
 "http://www.w3.org/TR/2001/REC-SVG-20010904/DTD/svg10.dtd">
<svg version="1.0" xmlns="http://www.w3.org/2000/svg"
 width="50.000000pt" height="51.000000pt" viewBox="0 0 50.000000 51.000000"
 preserveAspectRatio="xMidYMid meet">

<g transform="translate(0.000000,51.000000) scale(0.100000,-0.100000)"
fill="#000000" stroke="none">
<path d="M213 450 c-62 -14 -108 -55 -128 -115 -18 -51 3 -100 31 -72 9 8 54
10 54 1 0 -3 -7 -12 -15 -20 -17 -17 -20 -70 -5 -79 6 -4 23 7 39 24 21 22 38
31 61 31 23 0 40 -9 61 -31 16 -17 33 -28 39 -24 15 9 12 62 -5 79 -22 21 -19
28 12 24 16 -2 28 -9 29 -18 0 -9 -1 -10 -3 -3 -5 15 -23 18 -23 4 0 -5 7 -14
15 -21 12 -10 16 -8 24 11 5 13 11 20 12 14 1 -5 4 4 8 20 22 99 -96 200 -206
175z m47 -45 c0 -8 9 -15 19 -15 26 0 35 -16 15 -24 -12 -4 -14 -13 -10 -32 6
-23 5 -24 -15 -14 -15 9 -24 9 -32 1 -17 -17 -26 -13 -20 10 4 15 0 27 -12 35
-18 13 -18 14 4 14 14 0 25 7 28 20 6 23 23 27 23 5z"/>
<path d="M11 304 c0 -11 3 -14 6 -6 3 7 2 16 -1 19 -3 4 -6 -2 -5 -13z"/>
<path d="M10 256 c0 -15 50 -56 69 -56 26 0 8 31 -29 50 -32 16 -40 18 -40 6z"/>
<path d="M448 249 c-21 -11 -38 -26 -38 -34 0 -22 21 -18 54 8 41 33 30 50
-16 26z"/>
<path d="M120 244 c0 -9 -5 -12 -12 -8 -7 4 -8 3 -4 -5 6 -9 11 -9 22 0 16 13
18 29 4 29 -5 0 -10 -7 -10 -16z"/>
<path d="M161 124 c0 -11 3 -14 6 -6 3 7 2 16 -1 19 -3 4 -6 -2 -5 -13z"/>
<path d="M129 121 c9 -6 10 -10 2 -14 -8 -4 -8 -5 1 -3 20 4 21 26 1 26 -14 0
-15 -2 -4 -9z"/>
<path d="M352 118 c2 -6 11 -13 19 -16 12 -3 12 -2 0 6 -11 8 -11 10 0 15 10
4 8 6 -4 6 -10 1 -17 -4 -15 -11z"/>
<path d="M430 120 c0 -5 -9 -10 -19 -10 -11 0 -21 -5 -23 -12 -3 -8 -22 -6
-71 7 -65 17 -69 17 -134 0 -49 -13 -68 -15 -71 -7 -2 7 -13 12 -25 11 -21 0
-21 -1 -3 -12 10 -7 33 -22 51 -33 28 -19 38 -20 72 -11 27 7 55 7 84 1 37 -8
49 -6 77 11 49 30 89 64 75 65 -7 0 -13 -4 -13 -10z"/>
</g>
</svg>
